{
    "asset" : {
        "generator" : "Khronos glTF Blender I/O v1.8.19",
        "version" : "2.0"
    },
    "scene" : 0,
    "scenes" : [
        {
            "name" : "Scene",
            "nodes" : [
                0,
                1,
                2,
                3,
                4,
                5,
                6,
                7
            ]
        }
    ],
    "nodes" : [
        {
            "mesh" : 0,
            "name" : "phoneDetailsGLTF",
            "rotation" : [
                -1,
                0,
                0,
                -0.00020653009414672852
            ],
            "translation" : [
                0.16379618644714355,
                0.17417502403259277,
                0.10240435600280762
            ]
        },
        {
            "mesh" : 1,
            "name" : "phoneCameraGLTF",
            "rotation" : [
                -1,
                0,
                0,
                -0.00020653009414672852
            ],
            "translation" : [
                0.16379618644714355,
                0.17417502403259277,
                0.10240435600280762
            ]
        },
        {
            "mesh" : 2,
            "name" : "phoneExteriorGLTF",
            "rotation" : [
                -1,
                0,
                0,
                -0.00020653009414672852
            ],
            "translation" : [
                0.16379618644714355,
                0.17417502403259277,
                0.10240435600280762
            ]
        },
        {
            "mesh" : 3,
            "name" : "phoneAppleGLTF",
            "rotation" : [
                -1,
                0,
                0,
                -0.00020653009414672852
            ],
            "translation" : [
                0.16379618644714355,
                0.17417502403259277,
                0.10240435600280762
            ]
        },
        {
            "mesh" : 4,
            "name" : "phoneLightGLTF",
            "rotation" : [
                -1,
                0,
                0,
                -0.00020653009414672852
            ],
            "translation" : [
                0.16379618644714355,
                0.17417502403259277,
                0.10240435600280762
            ]
        },
        {
            "mesh" : 5,
            "name" : "phoneScreenGLTF",
            "rotation" : [
                -1,
                0,
                0,
                -0.00020653009414672852
            ],
            "translation" : [
                0.16379618644714355,
                0.17417502403259277,
                0.10240435600280762
            ]
        },
        {
            "mesh" : 6,
            "name" : "phoneSpeakerGLTF",
            "rotation" : [
                -1,
                0,
                0,
                -0.00020653009414672852
            ],
            "translation" : [
                0.16379618644714355,
                0.17417502403259277,
                0.10240435600280762
            ]
        },
        {
            "mesh" : 7,
            "name" : "phoneCorpusGLTF",
            "rotation" : [
                -1,
                0,
                0,
                -0.00020653009414672852
            ],
            "translation" : [
                0.16379618644714355,
                0.17417502403259277,
                0.10240435600280762
            ]
        }
    ],
    "materials" : [
        {
            "doubleSided" : true,
            "name" : "base",
            "pbrMetallicRoughness" : {
                "metallicFactor" : 0.09317835420370102,
                "roughnessFactor" : 0
            }
        },
        {
            "doubleSided" : true,
            "name" : "camera",
            "pbrMetallicRoughness" : {
                "baseColorTexture" : {
                    "index" : 0
                },
                "metallicFactor" : 0.41025152802467346,
                "roughnessFactor" : 0
            }
        },
        {
            "doubleSided" : true,
            "name" : "gray",
            "pbrMetallicRoughness" : {
                "baseColorFactor" : [
                    0.6435635685920715,
                    0.6435635685920715,
                    0.6435635685920715,
                    1
                ],
                "metallicFactor" : 0.3919588327407837,
                "roughnessFactor" : 0.24828505516052246
            }
        },
        {
            "doubleSided" : true,
            "name" : "logo",
            "pbrMetallicRoughness" : {
                "baseColorFactor" : [
                    0,
                    0,
                    0,
                    1
                ],
                "metallicFactor" : 0.7943978905677795,
                "roughnessFactor" : 0
            }
        },
        {
            "doubleSided" : true,
            "name" : "micthing",
            "pbrMetallicRoughness" : {
                "baseColorTexture" : {
                    "index" : 1
                },
                "metallicFactor" : 0,
                "roughnessFactor" : 0.6000000238418579
            }
        },
        {
            "doubleSided" : true,
            "name" : "black",
            "pbrMetallicRoughness" : {
                "baseColorFactor" : [
                    0,
                    0,
                    0,
                    1
                ],
                "metallicFactor" : 0,
                "roughnessFactor" : 0.6000000238418579
            }
        },
        {
            "doubleSided" : true,
            "name" : "silver",
            "pbrMetallicRoughness" : {
                "baseColorFactor" : [
                    0.3310827314853668,
                    0.3310827314853668,
                    0.3310827314853668,
                    1
                ],
                "metallicFactor" : 0.47122713923454285,
                "roughnessFactor" : 0.08974847197532654
            }
        }
    ],
    "meshes" : [
        {
            "name" : "Object_0",
            "primitives" : [
                {
                    "attributes" : {
                        "POSITION" : 0,
                        "NORMAL" : 1,
                        "TEXCOORD_0" : 2
                    },
                    "indices" : 3,
                    "material" : 0
                }
            ]
        },
        {
            "name" : "Object_1",
            "primitives" : [
                {
                    "attributes" : {
                        "POSITION" : 4,
                        "NORMAL" : 5,
                        "TEXCOORD_0" : 6
                    },
                    "indices" : 7,
                    "material" : 1
                }
            ]
        },
        {
            "name" : "Object_2",
            "primitives" : [
                {
                    "attributes" : {
                        "POSITION" : 8,
                        "NORMAL" : 9,
                        "TEXCOORD_0" : 10
                    },
                    "indices" : 11,
                    "material" : 2
                }
            ]
        },
        {
            "name" : "Object_3",
            "primitives" : [
                {
                    "attributes" : {
                        "POSITION" : 12,
                        "NORMAL" : 13,
                        "TEXCOORD_0" : 14
                    },
                    "indices" : 15,
                    "material" : 3
                }
            ]
        },
        {
            "name" : "Object_4",
            "primitives" : [
                {
                    "attributes" : {
                        "POSITION" : 16,
                        "NORMAL" : 17,
                        "TEXCOORD_0" : 18
                    },
                    "indices" : 19,
                    "material" : 4
                }
            ]
        },
        {
            "name" : "Object_5",
            "primitives" : [
                {
                    "attributes" : {
                        "POSITION" : 20,
                        "NORMAL" : 21,
                        "TEXCOORD_0" : 22
                    },
                    "indices" : 23
                }
            ]
        },
        {
            "name" : "Object_6",
            "primitives" : [
                {
                    "attributes" : {
                        "POSITION" : 24,
                        "NORMAL" : 25,
                        "TEXCOORD_0" : 26
                    },
                    "indices" : 27,
                    "material" : 5
                }
            ]
        },
        {
            "name" : "Object_7",
            "primitives" : [
                {
                    "attributes" : {
                        "POSITION" : 28,
                        "NORMAL" : 29,
                        "TEXCOORD_0" : 30
                    },
                    "indices" : 31,
                    "material" : 6
                }
            ]
        }
    ],
    "textures" : [
        {
            "sampler" : 0,
            "source" : 0
        },
        {
            "sampler" : 0,
            "source" : 1
        }
    ],
    "images" : [
        {
            "bufferView" : 8,
            "mimeType" : "image/jpeg",
            "name" : "Image_0"
        },
        {
            "bufferView" : 21,
            "mimeType" : "image/png",
            "name" : "Image_1"
        }
    ],
    "accessors" : [
        {
            "bufferView" : 0,
            "componentType" : 5126,
            "count" : 6010,
            "max" : [
                0.8056598901748657,
                0.2311774641275406,
                1.8607518672943115
            ],
            "min" : [
                -0.9109281301498413,
                1.1466443538665771e-05,
                -1.6928191184997559
            ],
            "type" : "VEC3"
        },
        {
            "bufferView" : 1,
            "componentType" : 5126,
            "count" : 6010,
            "type" : "VEC3"
        },
        {
            "bufferView" : 2,
            "componentType" : 5126,
            "count" : 6010,
            "type" : "VEC2"
        },
        {
            "bufferView" : 3,
            "componentType" : 5123,
            "count" : 7806,
            "type" : "SCALAR"
        },
        {
            "bufferView" : 4,
            "componentType" : 5126,
            "count" : 209,
            "max" : [
                0.6190158128738403,
                0.2311774641275406,
                1.7750377655029297
            ],
            "min" : [
                0.4359399080276489,
                0.2311774641275406,
                1.593916893005371
            ],
            "type" : "VEC3"
        },
        {
            "bufferView" : 5,
            "componentType" : 5126,
            "count" : 209,
            "type" : "VEC3"
        },
        {
            "bufferView" : 6,
            "componentType" : 5126,
            "count" : 209,
            "type" : "VEC2"
        },
        {
            "bufferView" : 7,
            "componentType" : 5123,
            "count" : 252,
            "type" : "SCALAR"
        },
        {
            "bufferView" : 9,
            "componentType" : 5126,
            "count" : 6973,
            "max" : [
                0.8056598901748657,
                0.2311774641275406,
                1.906388759613037
            ],
            "min" : [
                -0.9385411143302917,
                0.037564463913440704,
                -1.7147321701049805
            ],
            "type" : "VEC3"
        },
        {
            "bufferView" : 10,
            "componentType" : 5126,
            "count" : 6973,
            "type" : "VEC3"
        },
        {
            "bufferView" : 11,
            "componentType" : 5126,
            "count" : 6973,
            "type" : "VEC2"
        },
        {
            "bufferView" : 12,
            "componentType" : 5123,
            "count" : 11706,
            "type" : "SCALAR"
        },
        {
            "bufferView" : 13,
            "componentType" : 5126,
            "count" : 338,
            "max" : [
                0.13490986824035645,
                0.23434746265411377,
                1.7137348651885986
            ],
            "min" : [
                -0.2908360958099365,
                -0.0008195340633392334,
                0.7250049114227295
            ],
            "type" : "VEC3"
        },
        {
            "bufferView" : 14,
            "componentType" : 5126,
            "count" : 338,
            "type" : "VEC3"
        },
        {
            "bufferView" : 15,
            "componentType" : 5126,
            "count" : 338,
            "type" : "VEC2"
        },
        {
            "bufferView" : 16,
            "componentType" : 5123,
            "count" : 402,
            "type" : "SCALAR"
        },
        {
            "bufferView" : 17,
            "componentType" : 5126,
            "count" : 161,
            "max" : [
                0.28720390796661377,
                0.2311774641275406,
                1.748405933380127
            ],
            "min" : [
                0.22181987762451172,
                0.2311774641275406,
                1.6147828102111816
            ],
            "type" : "VEC3"
        },
        {
            "bufferView" : 18,
            "componentType" : 5126,
            "count" : 161,
            "type" : "VEC3"
        },
        {
            "bufferView" : 19,
            "componentType" : 5126,
            "count" : 161,
            "type" : "VEC2"
        },
        {
            "bufferView" : 20,
            "componentType" : 5123,
            "count" : 180,
            "type" : "SCALAR"
        },
        {
            "bufferView" : 22,
            "componentType" : 5126,
            "count" : 244,
            "max" : [
                0.7080639600753784,
                1.1466443538665771e-05,
                1.4058947563171387
            ],
            "min" : [
                -0.8165421485900879,
                1.1466443538665771e-05,
                -1.2402762174606323
            ],
            "type" : "VEC3"
        },
        {
            "bufferView" : 23,
            "componentType" : 5126,
            "count" : 244,
            "type" : "VEC3"
        },
        {
            "bufferView" : 24,
            "componentType" : 5126,
            "count" : 244,
            "type" : "VEC2"
        },
        {
            "bufferView" : 25,
            "componentType" : 5123,
            "count" : 288,
            "type" : "SCALAR"
        },
        {
            "bufferView" : 26,
            "componentType" : 5126,
            "count" : 3450,
            "max" : [
                0.5504659414291382,
                0.2360144555568695,
                1.6812329292297363
            ],
            "min" : [
                -0.6440531015396118,
                0.06469546258449554,
                -1.7147321701049805
            ],
            "type" : "VEC3"
        },
        {
            "bufferView" : 27,
            "componentType" : 5126,
            "count" : 3450,
            "type" : "VEC3"
        },
        {
            "bufferView" : 28,
            "componentType" : 5126,
            "count" : 3450,
            "type" : "VEC2"
        },
        {
            "bufferView" : 29,
            "componentType" : 5123,
            "count" : 4608,
            "type" : "SCALAR"
        },
        {
            "bufferView" : 30,
            "componentType" : 5126,
            "count" : 1627,
            "max" : [
                0.8056598901748657,
                0.2311774641275406,
                1.906388759613037
            ],
            "min" : [
                -0.9400371313095093,
                1.1466443538665771e-05,
                -1.7147321701049805
            ],
            "type" : "VEC3"
        },
        {
            "bufferView" : 31,
            "componentType" : 5126,
            "count" : 1627,
            "type" : "VEC3"
        },
        {
            "bufferView" : 32,
            "componentType" : 5126,
            "count" : 1627,
            "type" : "VEC2"
        },
        {
            "bufferView" : 33,
            "componentType" : 5123,
            "count" : 4488,
            "type" : "SCALAR"
        }
    ],
    "bufferViews" : [
        {
            "buffer" : 0,
            "byteLength" : 72120,
            "byteOffset" : 0
        },
        {
            "buffer" : 0,
            "byteLength" : 72120,
            "byteOffset" : 72120
        },
        {
            "buffer" : 0,
            "byteLength" : 48080,
            "byteOffset" : 144240
        },
        {
            "buffer" : 0,
            "byteLength" : 15612,
            "byteOffset" : 192320
        },
        {
            "buffer" : 0,
            "byteLength" : 2508,
            "byteOffset" : 207932
        },
        {
            "buffer" : 0,
            "byteLength" : 2508,
            "byteOffset" : 210440
        },
        {
            "buffer" : 0,
            "byteLength" : 1672,
            "byteOffset" : 212948
        },
        {
            "buffer" : 0,
            "byteLength" : 504,
            "byteOffset" : 214620
        },
        {
            "buffer" : 0,
            "byteLength" : 33658,
            "byteOffset" : 215124
        },
        {
            "buffer" : 0,
            "byteLength" : 83676,
            "byteOffset" : 248784
        },
        {
            "buffer" : 0,
            "byteLength" : 83676,
            "byteOffset" : 332460
        },
        {
            "buffer" : 0,
            "byteLength" : 55784,
            "byteOffset" : 416136
        },
        {
            "buffer" : 0,
            "byteLength" : 23412,
            "byteOffset" : 471920
        },
        {
            "buffer" : 0,
            "byteLength" : 4056,
            "byteOffset" : 495332
        },
        {
            "buffer" : 0,
            "byteLength" : 4056,
            "byteOffset" : 499388
        },
        {
            "buffer" : 0,
            "byteLength" : 2704,
            "byteOffset" : 503444
        },
        {
            "buffer" : 0,
            "byteLength" : 804,
            "byteOffset" : 506148
        },
        {
            "buffer" : 0,
            "byteLength" : 1932,
            "byteOffset" : 506952
        },
        {
            "buffer" : 0,
            "byteLength" : 1932,
            "byteOffset" : 508884
        },
        {
            "buffer" : 0,
            "byteLength" : 1288,
            "byteOffset" : 510816
        },
        {
            "buffer" : 0,
            "byteLength" : 360,
            "byteOffset" : 512104
        },
        {
            "buffer" : 0,
            "byteLength" : 6715,
            "byteOffset" : 512464
        },
        {
            "buffer" : 0,
            "byteLength" : 2928,
            "byteOffset" : 519180
        },
        {
            "buffer" : 0,
            "byteLength" : 2928,
            "byteOffset" : 522108
        },
        {
            "buffer" : 0,
            "byteLength" : 1952,
            "byteOffset" : 525036
        },
        {
            "buffer" : 0,
            "byteLength" : 576,
            "byteOffset" : 526988
        },
        {
            "buffer" : 0,
            "byteLength" : 41400,
            "byteOffset" : 527564
        },
        {
            "buffer" : 0,
            "byteLength" : 41400,
            "byteOffset" : 568964
        },
        {
            "buffer" : 0,
            "byteLength" : 27600,
            "byteOffset" : 610364
        },
        {
            "buffer" : 0,
            "byteLength" : 9216,
            "byteOffset" : 637964
        },
        {
            "buffer" : 0,
            "byteLength" : 19524,
            "byteOffset" : 647180
        },
        {
            "buffer" : 0,
            "byteLength" : 19524,
            "byteOffset" : 666704
        },
        {
            "buffer" : 0,
            "byteLength" : 13016,
            "byteOffset" : 686228
        },
        {
            "buffer" : 0,
            "byteLength" : 8976,
            "byteOffset" : 699244
        }
    ],
    "samplers" : [
        {
            "magFilter" : 9729,
            "minFilter" : 9987
        }
    ],
    "buffers" : [
        {
            "byteLength" : 708220,
            "uri" : "data:application/octet-stream;base64,"
        }
    ]
}
